<?xml version="1.0" encoding="utf-8"?>
<!-- Generator: Adobe Illustrator 26.0.1, SVG Export Plug-In . SVG Version: 6.00 Build 0)  -->
<svg version="1.1" id="Warstwa_1" xmlns="http://www.w3.org/2000/svg" xmlns:xlink="http://www.w3.org/1999/xlink" x="0px" y="0px"
	 viewBox="0 0 90.4 73.4" style="enable-background:new 0 0 90.4 73.4;" xml:space="preserve">
<style type="text/css">
	.st0{fill:#FFFFFF;}
</style>
<g>
	<path class="st0" d="M50.5,31.2L30.7,14.6c1-0.3,2.1-0.5,3.3-0.5h33.2c1.1,0,2.2,0.2,3.3,0.5L50.5,31.2z"/>
	<path class="st0" d="M78.9,25.9v21.8c0,6.5-5.3,11.8-11.8,11.8H33.9c-4.1,0-7.6-2.1-9.8-5.2c0.9-0.4,1.7-0.8,2.5-1.4
		c6.1-4.7,5.7-13.2,5.7-13.2c0-4.8-1.5-8.6-4.4-11.5c-1.7-1.6-3.6-2.8-5.7-3.4c0.2-1.7,0.7-3.3,1.5-4.7l26.8,22.4l26.8-22.4
		C78.3,21.9,78.9,23.8,78.9,25.9z"/>
</g>
<g>
	<path class="st0" d="M28.3,40.9c0-0.5,0-0.8,0-1.1c0-3.7-1-6.6-3.1-8.6c-0.9-0.9-1.9-1.5-3-2c-1.5-0.7-3.2-1-5.1-1
		c-3.4,0-6.2,1-8.3,3.1c-2.2,2.1-3.2,5-3.2,8.8c0,3.6,1.1,6.5,3.2,8.5c2.1,2,5,3,8.6,3c2,0,3.7-0.3,5.2-0.9c0.7-0.3,1.3-0.6,1.9-1
		c1.9-1.3,3.3-3.5,3.9-5.8l-4.5,0c-0.5,1.1-1,2-1.7,2.7c-0.3,0.3-0.6,0.5-0.9,0.8c-1.1,0.7-2.4,1.1-3.9,1.1c-2.1,0-3.8-0.7-5.2-2
		c-1.4-1.3-2.1-3.2-2.3-5.7l12.3,0L28.3,40.9z M12.2,33c1.3-1.2,2.9-1.8,4.9-1.8c2.1,0,3.7,0.7,5.1,2.1c0,0,0.1,0.1,0.1,0.1
		c0.9,0.9,1.4,2.3,1.6,4.2H10.1C10.2,35.7,10.9,34.2,12.2,33z"/>
</g>
</svg>
