<?xml version="1.0" encoding="utf-8"?>
<!-- Generator: Adobe Illustrator 26.0.1, SVG Export Plug-In . SVG Version: 6.00 Build 0)  -->
<svg version="1.1" id="Warstwa_1" xmlns="http://www.w3.org/2000/svg" xmlns:xlink="http://www.w3.org/1999/xlink" x="0px" y="0px"
	 viewBox="0 0 83.7 90.8" style="enable-background:new 0 0 83.7 90.8;" xml:space="preserve">
<style type="text/css">
	.st0{fill:#FFFFFF;}
</style>
<path class="st0" d="M60.5,38.7c2.2,2.2,2.2,5.8,0,8L49.9,57.4l-2.3,2.3l0,0c-3.1,3.1-8.2,3.1-11.3,0l0,0L34,57.4L23.2,46.7
	c-2.2-2.2-2.2-5.8,0-8l0,0c2.2-2.2,5.8-2.2,8,0l5,5V17.3c0-3.1,2.5-5.6,5.6-5.6l0,0c3.2,0,5.7,2.6,5.7,5.7v26.2l5-5
	C54.7,36.5,58.3,36.5,60.5,38.7L60.5,38.7z"/>
<path class="st0" d="M64.5,79.1H19.2c-3.1,0-5.7-2.5-5.7-5.7l0,0c0-3.1,2.5-5.7,5.7-5.7h45.4c3.1,0,5.7,2.5,5.7,5.7l0,0
	C70.2,76.5,67.7,79.1,64.5,79.1z"/>
</svg>
