<?xml version="1.0" encoding="iso-8859-1"?>
<!-- Generator: Adobe Illustrator 26.0.1, SVG Export Plug-In . SVG Version: 6.00 Build 0)  -->
<svg version="1.1" id="Warstwa_1" xmlns="http://www.w3.org/2000/svg" xmlns:xlink="http://www.w3.org/1999/xlink" x="0px" y="0px"
	 viewBox="0 0 85.039 85.039" style="enable-background:new 0 0 85.039 85.039;" xml:space="preserve">
<path style="fill:#FFFFFF;" d="M45.35,11.338c-15.65,0-28.34,12.69-28.34,28.35c0,5.77,1.73,11.15,4.7,15.63L9.96,67.058
	c-2.21,2.22-2.21,5.8,0,8.02c2.22,2.21,5.81,2.21,8.02,0l11.75-11.75c4.48,2.98,9.85,4.7,15.62,4.7c15.66,0,28.35-12.69,28.35-28.34
	C73.7,24.028,61.01,11.338,45.35,11.338z M45.35,56.698c-9.39,0-17-7.62-17-17.01c0-9.4,7.61-17.01,17-17.01
	c9.4,0,17.01,7.61,17.01,17.01C62.36,49.078,54.75,56.698,45.35,56.698z"/>
</svg>
