<?xml version="1.0" encoding="iso-8859-1"?>
<!-- Generator: Adobe Illustrator 26.0.1, SVG Export Plug-In . SVG Version: 6.00 Build 0)  -->
<svg version="1.1" id="Warstwa_1" xmlns="http://www.w3.org/2000/svg" xmlns:xlink="http://www.w3.org/1999/xlink" x="0px" y="0px"
	 viewBox="0 0 867.776 203.478" style="enable-background:new 0 0 867.776 203.478;" xml:space="preserve">
<g>
	<path style="fill:#FFFFFF;" d="M777.019,106.177c11.242,11.888,22.894,20.674,36.995,26.113
		c13.623,5.255,27.714,6.699,42.152,5.932c1.326-0.07,2.802-0.445,3.945-0.001c1.208,0.469,2.79,1.654,2.935,2.703
		c0.145,1.046-1.052,2.634-2.094,3.387c-0.98,0.709-2.514,0.803-3.823,0.888c-27.742,1.808-52.718-5.078-73.968-23.589
		c-3.373-2.938-6.737-5.888-10.453-9.137c-1.393,1.308-2.691,2.514-3.975,3.735c-4.212,4.006-8.261,8.203-12.67,11.98
		c-5.156,4.418-10.072,2.873-11.35-3.794c-1.245-6.497-1.562-13.169-2.341-19.757c-0.564-4.766-1.239-9.52-1.818-14.284
		c-0.24-1.971-0.75-4.013-0.47-5.926c1.43-9.784-0.576-19.518-0.216-29.27c0.374-10.096,0.794-20.195,1.509-30.271
		c0.154-2.175,1.369-4.455,2.661-6.29c0.63-0.895,2.819-1.503,3.828-1.088c0.93,0.381,1.973,2.515,1.69,3.517
		c-4.38,15.524-2.605,31.308-2.242,47.032c0.046,1.992,0.317,3.991,0.213,5.973c-0.164,3.121,1.128,4.96,3.678,6.931
		c4.835,3.737,9.084,8.231,13.564,12.424c1.316,1.232,2.591,2.506,4.013,3.885c5.617-1.919,10.547-4.658,14.903-8.24
		c4.48-3.684,8.635-7.765,12.881-11.728c1.942-1.813,3.687-3.839,5.661-5.614c1.458-1.311,3.269-1.893,4.962-0.421
		c1.875,1.63,1.532,3.607,0.176,5.34c-1.429,1.826-3.019,3.541-4.665,5.179c-6.596,6.566-13.213,13.112-19.889,19.597
		C781.15,102.997,779.238,104.355,777.019,106.177z M749.584,106.56c0.517,5.028,1.065,10.359,1.643,15.988
		c5.731-3.516,14.399-12.759,15.322-15.988C761.101,106.56,755.61,106.56,749.584,106.56z M761.117,99.73
		c-4.371-4.298-7.719-8.37-12.368-11.998C748.627,96.994,752.085,100.443,761.117,99.73z"/>
	<path style="fill:#FFFFFF;" d="M44.594,96.643c-1.345,3.792-2.4,6.697-3.409,9.618c-6.345,18.366-12.71,36.726-18.974,55.12
		c-0.682,2.003-0.73,4.216-1.132,6.32c-0.371,1.941-0.598,3.953-1.3,5.775c-0.696,1.804-2.228,2.987-4.349,2.522
		c-2.134-0.468-2.99-2.244-2.896-4.133c0.114-2.295,0.547-4.627,1.217-6.829c1.547-5.083,3.279-10.111,5.01-15.136
		c9.036-26.223,18.092-52.439,27.154-78.653c0.541-1.565,0.86-3.391,1.897-4.545c0.929-1.034,2.914-2.035,4.053-1.713
		c1.175,0.333,2.162,2.173,2.713,3.56c0.384,0.966-0.11,2.278-0.205,3.437c-0.727,8.934-1.535,17.863-2.131,26.806
		c-0.195,2.922-0.33,5.987,1.688,8.655c3.216,0.247,5.598-1.463,7.594-3.335c7.505-7.038,14.836-14.261,22.197-21.45
		c1.184-1.157,2.187-2.499,3.278-3.752c5.686-6.526,11.028-13.172,14.199-21.476c2.175-5.697,5.533-10.953,8.486-16.339
		c0.95-1.734,2.24-3.294,3.467-4.861c1.58-2.019,3.601-3.146,6.075-1.749c2.514,1.419,2.413,3.853,1.578,6.153
		c-0.96,2.646-1.965,5.338-3.411,7.733c-3.602,5.97-7.699,11.649-11.148,17.701c-2.692,4.723-5.139,9.677-6.954,14.791
		c-7.906,22.264-14.298,44.939-17.507,68.416c-0.201,1.468-0.298,3.166-1.109,4.271c-0.733,0.999-2.405,1.852-3.608,1.784
		c-0.886-0.05-2.061-1.563-2.418-2.65c-0.384-1.168-0.055-2.612,0.122-3.913c2.655-19.481,7.546-38.435,13.529-57.131
		c0.438-1.37,0.899-2.733,1.71-5.194c-5.098,5.243-9.272,9.69-13.623,13.957c-3.08,3.021-6.22,6.04-9.67,8.608
		c-2.756,2.051-5.865,3.871-9.095,4.994c-5.663,1.97-9.941-0.437-11.426-6.225C45.355,104.496,45.199,101.038,44.594,96.643z"/>
	<path style="fill:#FFFFFF;" d="M238.435,47.081c18.141,0.544,36.219,1.566,54.047,5.296c10.94,2.289,21.008,6.365,29.269,14.094
		c10.603,9.92,15.749,22.058,14.091,36.66c-2.25,19.811-12.909,33.778-30.578,42.479c-5.224,2.573-10.962,4.206-16.912,3.151
		c-9.653-1.712-16.373-7.548-19.728-16.481c-2.126-5.659-3.538-11.855-3.829-17.879c-0.739-15.304,3.633-29.544,10.965-42.901
		c0.786-1.432,1.815-2.832,3.034-3.903c1.847-1.623,4.513-1.347,5.789,0.413c1.355,1.868,0.452,3.225-0.945,4.761
		c-4.726,5.195-6.653,11.845-8.632,18.311c-3.76,12.283-4.948,24.724-0.62,37.211c3.01,8.685,11.441,16.369,24.117,12.523
		c14.638-4.441,28.042-20.325,30.116-36.044c2.29-17.356-4.671-29.847-19.334-38.777c-8.49-5.17-17.933-6.971-27.463-8.409
		c-15.478-2.336-31.072-3.349-46.737-3.277c-4.149,0.019-8.3-0.343-12.451-0.528c-2.274-0.101-4.471-0.415-4.729-3.286
		c-0.195-2.174,1.498-3.337,5.059-3.392C228.12,47.022,233.278,47.081,238.435,47.081z"/>
	<path style="fill:#FFFFFF;" d="M173.061,142.259c3.881-5.758,7.714-11.549,11.662-17.261c2.266-3.278,4.693-6.446,7.102-9.623
		c0.799-1.054,1.689-2.068,2.673-2.949c5.516-4.936,10.534-3.403,11.731,3.807c0.647,3.902,0.53,7.934,0.705,11.909
		c0.183,4.147,0.3,8.298,0.452,12.447c0.024,0.662,0.359,1.497,0.072,1.95c-0.814,1.282-1.679,2.933-2.914,3.394
		c-0.729,0.272-2.85-1.226-3.205-2.303c-0.817-2.477-1.151-5.172-1.291-7.8c-0.229-4.31-0.118-8.638-0.218-12.957
		c-0.03-1.277-0.289-2.55-0.563-4.822c-1.537,1.581-2.648,2.46-3.43,3.57c-5.073,7.2-10.024,14.486-15.124,21.666
		c-2.111,2.972-4.405,5.827-6.781,8.594c-1.454,1.694-3.327,2.847-5.744,1.907c-2.508-0.975-3.621-3.06-3.468-5.523
		c0.349-5.626,0.968-11.235,1.514-16.847c0.112-1.147,0.382-2.279,0.76-4.464c-3.108,5.66-5.446,10.594-8.419,15.111
		c-2.252,3.423-5.235,6.387-8.057,9.403c-0.988,1.056-2.396,1.798-3.728,2.444c-7.76,3.762-15.266-0.658-14.483-9.243
		c1.239-13.574,7.58-24.621,19.218-32.195c1.607-1.046,3.692-1.549,5.627-1.851c1.918-0.299,3.724,0.426,4.175,2.635
		c0.409,1.999-0.872,3.147-2.563,3.734c-10.802,3.75-15.131,12.846-18.596,22.567c-0.969,2.719-2.469,6.398,0.75,8.1
		c3.066,1.621,5.553-1.463,7.512-3.624c4.622-5.097,7.875-11.075,10.536-17.402c7.879-18.732,13.695-38.129,18.81-57.757
		c0.459-1.76,0.787-3.671,1.743-5.145c0.676-1.043,2.603-2.281,3.446-1.977c1.262,0.455,2.668,2.079,2.905,3.404
		c0.301,1.677-0.384,3.587-0.857,5.339c-6.083,22.51-9.017,45.604-12.781,68.543c-0.156,0.953-0.102,1.94-0.146,2.911
		C172.411,142.054,172.736,142.156,173.061,142.259z"/>
	<path style="fill:#FFFFFF;" d="M426.493,107.318c-0.345-10.592-3.325-18.542-10.161-25.02c-6.33-5.997-13.195-11.118-20.992-15.049
		c-5.932-2.991-11.99-5.84-17.553-9.431c-8.794-5.675-9.47-13.643-2.62-21.452c4.506-5.137,10.198-8.542,16.163-11.482
		c9.584-4.725,19.67-8.128,30.19-10.115c2.105-0.398,4.32-0.58,6.438-0.379c1.066,0.101,2.836,1.258,2.859,1.984
		c0.039,1.214-0.757,3.012-1.759,3.576c-1.673,0.941-3.771,1.176-5.716,1.58c-10.967,2.277-21.641,5.462-31.425,11.005
		c-3.877,2.197-7.682,4.742-10.94,7.754c-4.786,4.425-4.326,8.796,1.19,12.226c4.643,2.888,9.617,5.274,14.556,7.652
		c8.768,4.222,16.603,9.672,23.734,16.318c13.752,12.815,18.025,33.726,5.705,52.677c-7.94,12.212-18.71,21.024-31.778,27.2
		c-8.317,3.931-16.91,6.988-26.145,7.868c-1.813,0.173-3.746,0.455-5.442,0.004c-1.171-0.311-2.725-1.726-2.831-2.777
		c-0.106-1.046,1.151-2.843,2.222-3.26c1.957-0.763,4.229-0.683,6.347-1.074c23.535-4.344,42.873-14.926,54.517-36.812
		C425.432,115.836,426.395,110.955,426.493,107.318z"/>
	<path style="fill:#FFFFFF;" d="M592.86,113.33c-3.479-0.047-7.115-0.307-9.872,3.457c-1.467,2.003-4.103,1.765-5.773,0.222
		c-1.623-1.5-1.897-4.092,0.03-5.742c1.957-1.676,4.348-3.228,6.803-3.877c10.355-2.736,19.8-0.808,27.799,6.582
		c8.832,8.16,6.884,22.699-3.724,28.25c-3.312,1.733-6.799,1.944-10.031,0.146c-1.168-0.65-2.281-2.5-2.311-3.827
		c-0.043-1.91,1.796-2.551,3.636-2.53c0.332,0.004,0.663,0.06,0.995,0.067c5.409,0.112,7.416-1,9.124-5.05
		c1.712-4.058,0.894-9.099-2.362-11.937c-2.09-1.822-4.623-3.137-7.724-5.185c0.646,2.352,1.652,3.981,1.27,5.161
		c-0.429,1.322-2.394,2.069-3.179,3.374c-0.9,1.497-1.56,3.294-1.762,5.026c-0.788,6.757-1.544,13.528-1.962,20.316
		c-0.856,13.915-1.466,27.844-2.236,41.765c-0.1,1.802-0.32,3.67-0.935,5.341c-0.328,0.89-1.685,2.045-2.468,1.969
		c-1.085-0.106-2.352-1.065-3.007-2.023c-0.589-0.862-0.668-2.225-0.614-3.35c1.077-22.537,1.379-45.136,4.734-67.503
		C589.812,120.514,591.521,117.226,592.86,113.33z"/>
	<path style="fill:#FFFFFF;" d="M445.961,147.071c3.91,1.456,7.499,0.906,11.058,0.467c1.976-0.243,3.963-1.092,5.875-0.913
		c1.352,0.126,3.147,1.235,3.737,2.409c0.856,1.705-0.47,3.451-2.21,3.783c-4.86,0.927-9.769,1.742-14.696,2.125
		c-2.593,0.202-5.254-0.749-7.9-0.895c-2.765-0.152-5.55,0.106-8.323,0.056c-2.279-0.041-4.751,0.217-6.762-0.59
		c-1.295-0.52-2.712-2.792-2.603-4.161c0.107-1.344,1.874-2.901,3.29-3.688c1.18-0.657,2.933-0.569,4.385-0.4
		c3.649,0.426,6.299-1.039,8.845-3.531c6.011-5.882,9.794-12.944,11.642-21.039c0.527-2.308,1.458-5.325-1.202-6.812
		c-2.559-1.431-4.663,0.746-6.618,2.258c-0.917,0.709-1.708,1.577-2.586,2.339c-1.547,1.342-3.251,1.905-4.847,0.234
		c-1.488-1.556-1.453-3.652,0.009-4.944c2.698-2.387,5.665-4.521,8.733-6.417c1.329-0.821,3.174-1.035,4.803-1.101
		c4.009-0.164,7.202,2.362,8.449,6.392c1.447,4.68,0.498,9.203-0.966,13.672c-2.198,6.711-5.676,12.706-10.241,18.088
		C447.221,145.122,446.74,145.95,445.961,147.071z"/>
	<path style="fill:#FFFFFF;" d="M520.159,146.392c7.967,2.15,15.294,1.528,22.577-0.843c3.83-1.247,5.766-0.79,6.557,1.217
		c0.787,1.998-0.53,3.895-4.201,5.147c-6.153,2.098-12.408,3.831-19.044,2.619c-5.394-0.985-10.795-1.934-16.186-2.932
		c-1.953-0.361-3.455-1.326-3.651-3.494c-0.2-2.205,1.25-3.263,3.037-4.047c8.635-3.788,14.327-10.633,18.874-18.527
		c1.209-2.1,1.825-4.625,2.282-7.036c0.219-1.155-0.567-2.501-1.248-3.662c-2.111,5.22-6.291,6.806-11.126,4.178
		c-2.274-1.236-2.807-3.56-1.365-5.949c2.325-3.852,10.975-6.571,15.251-4.794c4.742,1.97,6.636,6.406,5.354,12.517
		c-1.668,7.951-6.321,14.163-11.675,19.959C523.921,142.554,522.177,144.298,520.159,146.392z"/>
	<path style="fill:#FFFFFF;" d="M241.832,143.186c-1.957,1.805-3.444,3.383-5.138,4.694c-3.288,2.546-6.887,4.091-11.103,2.344
		c-4.148-1.719-5.984-5.145-6.414-9.351c-0.199-1.945,0.124-3.952,0.287-5.924c0.202-2.442,0.575-4.873,0.712-7.318
		c0.281-5.031,6.651-11.373,12.34-12.177c5.359-0.757,10.846,2.866,12.359,8.635c0.699,2.663,0.914,5.602,0.612,8.334
		c-0.269,2.43,0.159,4.183,1.94,5.742c1.869,1.636,3.639,3.389,5.541,4.985c1.839,1.544,3.087,3.331,1.489,5.543
		c-1.742,2.412-3.88,1.175-5.679-0.098C246.499,146.984,244.361,145.172,241.832,143.186z M237.213,137.663
		c-1.231-1.489-1.676-2.207-2.286-2.731c-1.784-1.53-3.438-4.834-5.944-3.042c-1.739,1.244-2.069,4.508-2.91,6.911
		c-0.197,0.565,0.009,1.315,0.16,1.949c0.691,2.897,2.643,3.942,5.08,2.304C233.403,141.65,235.088,139.645,237.213,137.663z
		 M230.823,123.343c2.965,1.776,5.058,3.03,8.029,4.809C236.295,122.44,236.239,122.406,230.823,123.343z"/>
	<path style="fill:#FFFFFF;" d="M677.998,117.945c-3.028,6.217-6.039,12.443-9.096,18.645c-0.728,1.476-1.377,3.092-2.469,4.266
		c-2.234,2.403-5.175,1.741-6.174-1.398c-0.539-1.695-0.702-3.604-0.6-5.391c0.433-7.621,1.013-15.234,1.574-22.848
		c0.11-1.486,0.24-2.994,0.593-4.435c0.691-2.821,2.287-4.059,4.442-3.677c2.129,0.378,3.001,2.078,2.645,5.045
		c-0.508,4.224-0.985,8.451-0.721,12.895c1.519-2.322,2.959-4.701,4.584-6.946c1.062-1.466,2.22-2.961,3.637-4.052
		c3.023-2.326,6.615-1.429,8.282,2.033c0.855,1.777,1.259,3.768,1.906,5.649c0.916,2.662,1.697,5.388,2.848,7.947
		c1.573,3.496,4.432,5.272,8.332,5.247c0.997-0.006,1.997-0.03,2.992,0.02c1.84,0.092,3.343,0.848,3.561,2.806
		c0.247,2.218-1.227,3.193-3.2,3.748c-5.416,1.523-12.315-0.523-15.634-5.227c-1.883-2.669-3.134-5.806-4.494-8.812
		c-0.737-1.628-1.105-3.422-1.639-5.141C678.911,118.194,678.455,118.07,677.998,117.945z"/>
	<path style="fill:#FFFFFF;" d="M655.705,120.949c-0.477,10.699-4.516,17.881-11.935,23.023c-7.149,4.955-15.89,2.495-19.758-5.253
		c-2.154-4.315-3.185-8.843-1.679-13.503c1.425-4.408,2.908-8.888,5.115-12.928c2.662-4.874,6.874-8.253,12.864-8.006
		c6.229,0.258,10.697,3.594,13.237,9.126C654.835,116.208,655.279,119.395,655.705,120.949z M648.472,123.353
		c0.122-4.981-0.966-7.696-3.7-10.191c-2.063-1.883-4.391-2.278-6.91-1.392c-2.245,0.789-3.434,2.226-3.106,4.923
		c0.124,1.018-0.927,2.401-1.787,3.279c-4.138,4.225-5.333,9.766-3.04,14.912c2.078,4.664,6.471,5.989,10.534,2.792
		C645.155,133.984,648.601,129.408,648.472,123.353z"/>
	<path style="fill:#FFFFFF;" d="M553.166,124.511c1.282-3.142,2.1-5.87,3.461-8.294c1.639-2.918,3.975-5.259,7.354-6.347
		c3.116-1.003,5.978-0.702,8.299,1.632c2.263,2.276,2.925,5.112,2.038,8.259c-1.359,4.821-4.808,7.807-8.958,10.151
		c-1.426,0.805-2.944,1.448-4.352,2.131c0.452,5.896,3.274,9.215,8.908,10.421c1.769,0.379,3.615,0.389,5.424,0.591
		c1.843,0.206,3.16,1.081,3.346,3.045c0.213,2.257-1.173,3.547-3.162,3.72c-5.818,0.506-11.461-0.511-15.62-4.797
		c-2.445-2.52-4.086-5.927-5.654-9.145c-0.898-1.844-1.424-3.641-3.68-4.24c-0.764-0.203-1.769-0.654-2.054-1.273
		c-0.643-1.394-1.405-3.035-1.199-4.442c0.281-1.926,2.058-2.377,3.916-1.926C551.852,124.148,552.464,124.324,553.166,124.511z
		 M561.032,124.43c3.5-2.378,6.422-3.664,6.02-7.924C563.456,117.817,561.955,120.178,561.032,124.43z"/>
	<path style="fill:#FFFFFF;" d="M498.678,115.696c-3.297,0.686-5.275,2.906-6.871,5.448c-3.39,5.401-4.671,11.324-3.826,17.652
		c0.866,6.494,4.025,9.283,10.56,9.452c0.664,0.017,1.488-0.248,1.962,0.052c1.163,0.735,2.666,1.525,3.115,2.656
		c0.708,1.783-0.531,3.212-2.293,3.803c-4.389,1.471-8.539,0.747-12.384-1.724c-3.979-2.557-6.375-6.267-7.421-10.817
		c-2.217-9.649-0.042-18.475,5.485-26.489c2.409-3.493,5.77-5.98,10.07-6.86c4.104-0.841,8.019,1.314,9.177,4.975
		c0.778,2.457,0.026,4.83-1.878,5.56c-2.143,0.821-3.46-0.229-4.393-2.102C499.702,116.742,499.182,116.304,498.678,115.696z"/>
	<path style="fill:#FFFFFF;" d="M712.687,122.386c-0.147,5.132,3.038,7.045,6.853,8.211c2.381,0.728,5.261,0.729,4.845,4.318
		c-0.285,2.459-3.088,3.453-7.08,2.374c-5.433-1.468-9.522-4.508-11.219-10.204c-0.792-2.66-1.994-5.201-2.762-7.866
		c-0.285-0.989-0.146-2.315,0.295-3.256c1.036-2.208,2.402-4.259,3.577-6.405c1.713-3.126,3.735-5.881,7.406-6.924
		c4.731-1.344,8.76,1.435,9.052,6.349c0.31,5.207-2.208,8.861-6.563,11.385C715.814,121.108,714.4,121.611,712.687,122.386z
		 M716.796,110.534c-0.305-0.235-0.611-0.469-0.916-0.704c-1.196,0.734-1.908,1.843-1.456,3.847
		C715.215,112.63,716.005,111.582,716.796,110.534z"/>
	<path style="fill:#FFFFFF;" d="M97.859,144.986c1.512-8.915,4.031-18.148,9.557-26.264c1.178-1.73,2.889-3.21,4.625-4.415
		c1.635-1.135,3.583-0.978,4.862,0.794c1.167,1.617,0.552,3.132-0.771,4.428c-6.878,6.736-9.106,15.549-10.959,24.523
		c-0.267,1.294-0.316,2.639-0.648,3.913c-0.449,1.725-1.427,3.108-3.45,2.913c-2.166-0.21-3.112-1.671-3.212-3.747
		C97.838,146.636,97.859,146.138,97.859,144.986z"/>
	<path style="fill:#FFFFFF;" d="M127.617,95.165c-1.932,1.188-3.022,2.376-4.194,2.462c-1.959,0.144-3.233-1.399-2.617-3.237
		c0.349-1.042,2.033-2.281,3.092-2.26C124.915,92.151,125.903,93.682,127.617,95.165z"/>
</g>
</svg>
